<svg xmlns="http://www.w3.org/2000/svg" viewBox="0 0 2002.96 2003.04">
  <path fill="#dffcfa" d="M-129.67,968c3.77,557.76-452.88,997.28-985.81,1003.49-282.85,3.29-526.39-97.12-725.28-296-202.92-202.92-302.32-454-291-739.72C-2110.31,396.37-1688.95-4.57-1181.17-30-863.81-45.91-594.75,71.53-382,307.44-213.79,494-131.87,716.62-129.67,968Z" transform="translate(2132.6 31.44)"/>
  <path fill="#05d324" d="M-1232.61,806.42c-80-32.82-156.94-71.28-225.32-125.1-30.61-29.73-64.87-55.61-91.15-89.92a396.35,396.35,0,0,1-68.53-139.28,644.59,644.59,0,0,1-20-114.17,213.59,213.59,0,0,1-.77-22c.15-7.88,4-12.16,12.05-13.27a755.09,755.09,0,0,1,192-2.09c39.08,4.56,78.27,9.31,116.31,20,63.85,17.87,126.28,39.93,182.41,75.79,30.24,19.32,60.33,39.34,85.28,66.23,26.25,28.3,59.81,49.22,81,83,18.16,29,33.78,59.19,50.59,88.75,22.52,39.62,32.6,82.23,41.29,125.17,8.48,41.87,10,85.14-2.73,127.09-7.39,24.3-10.09,49.6-19.39,73.66-9.94,25.76-15.74,53.06-35.9,73.68-12.33,9-19.55.34-26.77-7.93-38.33-43.88-81-83.42-126-120.05-33.07-26.89-67.57-52.5-105.78-72.13A177.51,177.51,0,0,1-1232.61,806.42Z" transform="translate(2132.6 31.44)"/>
  <path fill="#27e34a" d="M-1232.61,806.42c15.37-.3,22.84,13.61,34.65,19.92,89.16,47.63,162.47,115.36,232.32,187.25,7.83,8.06,10.61,23.11,26.7,20.64,3.38-3.32,6.12-8.86,12-3.47-33.14,40.85-56.73,88.31-90.58,128.85-54.66,65.45-116.74,122.9-183,176.21-31.7,23.47-63,47.58-96.35,68.67-84.36,53.85-171.67,102.19-263.69,141.77-3,1.31-6.18,2.35-9.28,3.51-45,15.37-88.32,35.59-134,49.36-5.7,1.72-11.23,4-17.24,4.68-4,.45-8.18,1.07-10.69-3-3.34-5.44,1.13-8.41,4.21-11.73,45.6-35,91.23-69.92,133.77-108.63,116.17-105.69,218-222.82,288.27-364.74,44.43-89.73,71.94-184.23,77.63-284.59C-1227.31,822.51-1225.87,813.65-1232.61,806.42Z" transform="translate(2132.6 31.44)"/>
  <path fill="#05bc39" d="M-926.92,1030.76l-12,3.47c.42-6.71,4.87-10.68,9.68-14.51,2.56-2,6.94-4.74,6.75-6.8-1.44-15.69,12.14-26.86,13.79-38.92,2.94-21.43,12.78-40.09,17.51-60.58,8.46-36.61,16.11-72.73,12.74-110.37-4.94-55.08-16.35-107.42-42-158.15-20.21-39.93-41.55-78.35-66.89-115-8.16-11.79-18.73-21.36-28.81-30.12-44.54-38.76-86.13-81.59-138.57-110.32-37.67-20.64-74.63-43.33-119.13-47.33-10.65-.95-17.29-11.33-28-14.45-37.88-11-77.12-14-115.5-21.72-49.79-10-99.78-7.51-149.75-7.1-19.76.16-39.48,5.11-59.23,7.83-10,1.38-8,9.16-8.12,15.49-.43,26.75,3,53.25,8.27,79.29,16.41,81.23,44.78,156.94,104.84,217.24,21,21.06,46.32,37.72,63.51,62.63-68.8-47.76-120-109.58-149.78-188.31-21.24-56.16-29.66-114.94-34.66-174.35-.85-10.17-1.88-19.15,13.82-20.59,101.22-9.31,201.61-6.54,301,16.59,67.65,15.75,130.9,42.22,191,76.64,37.69,21.92,70.78,49.57,100.33,81.45,8.76,9.45,17.67,14,29.85,7.19,52.8-30.79,106.62-59.32,167.42-71.1,53.34-10.33,106-13.63,156.86,12.5,37.07,19.07,61.41,49.05,78,86,5.81,12.93,13.82,21.68,26.36,28.52,27.7,15.1,53.63,33,75,56.66,5.74,6.34,12.59,12.1,13.12,23-17.45-1.12-34.53-3.06-51.61-3.18-111.26-.76-188.66,50.63-232.41,152.65-12.92,30.15-24.59,60.84-36.89,91.26C-837.21,922.43-870.06,984.61-926.92,1030.76Z" transform="translate(2132.6 31.44)"/>
  <path fill="#58d678" d="M-1727.47,1589.07c-5.7,16,3.85,13,13,10.34,35.23-10.09,69-24.21,103.13-37.31,13.44-5.15,26.61-12,41.57-12.33-45.34,22.68-93.11,39.19-141.27,54.48-16.15,5.13-32.16,12-51.38,11.33C-1752.34,1603.29-1741.78,1593.8-1727.47,1589.07Z" transform="translate(2132.6 31.44)"/>
  <path fill="#acf6c6" d="M-1006.33,479.94c-5.56,9.08-13.3,12.52-21.05,4-32.43-35.61-71.3-63.49-109.13-92.65,12.34-2.89,17.17,8.25,25.32,13.36,27.39,17.18,51.49,38.27,73.19,62C-1029.1,476.41-1019.28,481.22-1006.33,479.94Z" transform="translate(2132.6 31.44)"/>
  <path fill="#97f2b5" d="M-1296.81,1404.49c30.77-24.78,62-49,96.35-68.67C-1228.63,1364.25-1261,1386.73-1296.81,1404.49Z" transform="translate(2132.6 31.44)"/>
</svg>
